<svg width="21" height="19" viewBox="0 0 21 19" fill="none" xmlns="http://www.w3.org/2000/svg">
<path d="M15.6859 0.0286865C17.094 0.0286865 18.4485 0.587286 19.4449 1.5896C20.4424 2.58981 21 3.93889 21 5.35119V13.6775C21 16.618 18.6165 19 15.6859 19H5.313C2.38245 19 0 16.618 0 13.6775V5.35119C0 2.41064 2.37195 0.0286865 5.313 0.0286865H15.6859ZM16.8735 5.50929C16.653 5.49769 16.443 5.57253 16.2844 5.72008L11.55 9.51434C10.941 10.0213 10.0684 10.0213 9.45 9.51434L4.725 5.72008C4.39845 5.47767 3.94695 5.50929 3.675 5.79386C3.3915 6.07843 3.36 6.53163 3.60045 6.84782L3.738 6.98483L8.5155 10.7264C9.1035 11.1901 9.81645 11.4431 10.563 11.4431C11.3074 11.4431 12.033 11.1901 12.6199 10.7264L17.3565 6.9216L17.4405 6.83728C17.6914 6.53163 17.6915 6.08897 17.429 5.78332C17.283 5.62628 17.0824 5.53037 16.8735 5.50929Z" fill="white"/>
</svg>
