<svg width="18" height="18" viewBox="0 0 18 18" fill="none" xmlns="http://www.w3.org/2000/svg">
<path d="M14.0586 14.0889C14.4065 13.7433 14.9641 13.7433 15.312 14.0889L17.6112 15.9448H17.6511C18.1163 16.4149 18.1163 17.1772 17.6511 17.6474C17.186 18.1175 16.4318 18.1175 15.9666 17.6474L14.0586 15.4606L13.9862 15.3789C13.8514 15.2082 13.7769 14.9954 13.7769 14.7747C13.7769 14.5173 13.8783 14.2705 14.0586 14.0889ZM7.71988 0C9.76731 0 11.7309 0.822093 13.1787 2.28543C14.6264 3.74876 15.4398 5.73347 15.4398 7.80293C15.4398 12.1124 11.9834 15.6059 7.71988 15.6059C3.45631 15.6059 0 12.1124 0 7.80293C0 3.49349 3.45631 0 7.71988 0Z" fill="white"/>
</svg>
