<svg width="11" height="14" viewBox="0 0 11 14" fill="none" xmlns="http://www.w3.org/2000/svg">
<path d="M2.17683 4.28567C2.1102 4.99506 2.06344 6.25047 2.48312 6.78484C2.48312 6.78484 2.28555 5.40575 4.05663 3.67547C4.76973 2.97892 4.93457 2.03152 4.68556 1.32097C4.54411 0.918445 4.28576 0.585923 4.0613 0.35374C3.93037 0.217231 4.03091 -0.00795107 4.22146 0.000216147C5.37412 0.051553 7.24222 0.371241 8.03599 2.35938C8.38436 3.2321 8.41008 4.134 8.24408 5.05106C8.13887 5.63677 7.76478 6.93885 8.61817 7.0987C9.22723 7.21304 9.52183 6.73001 9.65393 6.38232C9.70887 6.23764 9.89942 6.20147 10.0023 6.31698C11.031 7.48489 11.1187 8.86048 10.906 10.0447C10.4945 12.3339 8.1716 14 5.86394 14C2.98112 14 0.686326 12.3537 0.0912911 9.37385C-0.148359 8.17094 -0.0267803 5.79078 1.83197 4.11066C1.96992 3.98465 2.19554 4.09666 2.17683 4.28567V4.28567Z" fill="url(#paint0_radial_1_504)"/>
<defs>
<radialGradient id="paint0_radial_1_504" cx="0" cy="0" r="1" gradientUnits="userSpaceOnUse" gradientTransform="translate(5.29296 14.0363) rotate(-179.752) scale(8.25188 13.5133)">
<stop offset="0.314" stop-color="#FF9800"/>
<stop offset="0.662" stop-color="#FF6D00"/>
<stop offset="0.972" stop-color="#F44336"/>
</radialGradient>
</defs>
</svg>
